/* XPM */
static char *OpenNfs[] = {
/* columns rows colors chars-per-pixel */
"48 48 235 2 ",
"   c #5E3817",
".  c #583618",
"X  c #5F3A19",
"o  c #653917",
"O  c #6B3A17",
"+  c #663D1A",
"@  c #6C3D1A",
"#  c #773D17",
"$  c #723D18",
"%  c #7A3E19",
"&  c #72401C",
"*  c #7B401A",
"=  c #664423",
"-  c #694524",
";  c #6D4827",
":  c #6E4928",
">  c #734927",
",  c #724B2A",
"<  c #7B4E2B",
"1  c #7A5231",
"2  c #853F19",
"3  c #84421B",
"4  c #8C441B",
"5  c #94451B",
"6  c #9D471C",
"7  c #9E491E",
"8  c #A0471B",
"9  c #A44B1E",
"0  c #AB4C1D",
"q  c #B34F1E",
"w  c #BF501E",
"e  c #864722",
"r  c #814A24",
"t  c #884923",
"y  c #924B24",
"u  c #9E4D23",
"i  c #91502B",
"p  c #9C532C",
"a  c #895733",
"s  c #815937",
"d  c #845F3E",
"f  c #965632",
"g  c #935D3C",
"h  c #A44F23",
"j  c #A94E21",
"k  c #B14F21",
"l  c #A35429",
"z  c #A95328",
"x  c #A95A2F",
"c  c #B45223",
"v  c #BB5424",
"b  c #B25628",
"n  c #B85728",
"m  c #B65B2E",
"M  c #BE5C2C",
"N  c #A35830",
"B  c #AB5F36",
"V  c #B15D31",
"C  c #8F633F",
"Z  c #91613B",
"A  c #9B633E",
"S  c #BF6132",
"D  c #C3521F",
"F  c #CB541F",
"G  c #CB5520",
"H  c #C15825",
"J  c #C65E2E",
"K  c #C85B2B",
"L  c #D35720",
"P  c #D55A23",
"I  c #DB5921",
"U  c #D35F2B",
"Y  c #E65C22",
"T  c #EA5D22",
"R  c #F15F22",
"E  c #CC612F",
"W  c #D7612D",
"Q  c #DC642D",
"!  c #CD6636",
"~  c #C8673A",
"^  c #C96B3B",
"/  c #D06A3A",
"(  c #DA6D3C",
")  c #DB703D",
"_  c #E76229",
"`  c #EF652B",
"'  c #F36023",
"]  c #F3662B",
"[  c #F4682E",
"{  c #E16833",
"}  c #F46C33",
"|  c #EB713C",
" . c #F6723B",
".. c #8E6548",
"X. c #8C6B4F",
"o. c #906646",
"O. c #9B6647",
"+. c #936A4C",
"@. c #9C6C4C",
"#. c #906F51",
"$. c #9A7055",
"%. c #AC764E",
"&. c #A57B5C",
"*. c #A97B5F",
"=. c #B17951",
"-. c #9A7D67",
";. c #A57E64",
":. c #CC7247",
">. c #D67949",
",. c #DE7A49",
"<. c #ED7440",
"1. c #EC7947",
"2. c #E17E4D",
"3. c #E87D4B",
"4. c #F57641",
"5. c #F97741",
"6. c #F67A45",
"7. c #F87B46",
"8. c #F67E49",
"9. c #F87D48",
"0. c #B2805C",
"q. c #AE8665",
"w. c #AA8F7B",
"e. c #AC917D",
"r. c #B0917D",
"t. c #BC977A",
"y. c #C2865D",
"u. c #EE804E",
"i. c #F6814D",
"p. c #F8824D",
"a. c #E48351",
"s. c #EF8651",
"d. c #E88957",
"f. c #E2855B",
"g. c #E8895C",
"h. c #F38552",
"j. c #F88551",
"k. c #F58A56",
"l. c #F88955",
"z. c #F78E5B",
"x. c #F88D59",
"c. c #EC905F",
"v. c #F5915E",
"b. c #F8925E",
"n. c #CD9166",
"m. c #D19064",
"M. c #D6976B",
"N. c #DC996D",
"B. c #CB977D",
"V. c #C29C7C",
"C. c #DC9A7A",
"Z. c #E79060",
"A. c #EA9564",
"S. c #E7976C",
"D. c #E29A6C",
"F. c #EE9A6A",
"G. c #F69563",
"H. c #F89460",
"J. c #F69967",
"K. c #F99A66",
"L. c #F69E6C",
"P. c #F99D69",
"I. c #E29D70",
"U. c #F7A06F",
"Y. c #F9A16F",
"T. c #E3A072",
"R. c #ECA576",
"E. c #ECA579",
"W. c #ECA97D",
"Q. c #F6A373",
"!. c #F9A573",
"~. c #F7A877",
"^. c #F9A877",
"/. c #F6AA7A",
"(. c #F9AC7C",
"). c #FBB07F",
"_. c #AC9381",
"`. c #A79788",
"'. c #A7988B",
"]. c #B7A597",
"[. c #B8A799",
"{. c #B7AEA6",
"}. c #BCB4AD",
"|. c #BEB8B3",
" X c #D0A382",
".X c #D4A887",
"XX c #DDAD90",
"oX c #DDB294",
"OX c #E3A985",
"+X c #EAA981",
"@X c #E0AE8E",
"#X c #F8AF80",
"$X c #EBB88F",
"%X c #F1B184",
"&X c #F9B283",
"*X c #F9B788",
"=X c #F7BB8E",
"-X c #F9BA8C",
";X c #E1AE91",
":X c #EFBC91",
">X c #ECBF9A",
",X c #F4BD92",
"<X c #F9BE91",
"1X c #C0B2A6",
"2X c #C1B4A9",
"3X c #DBB8A4",
"4X c #C4BAB2",
"5X c #C8BDB4",
"6X c #C6BEB8",
"7X c #EFC19B",
"8X c #F9C295",
"9X c #F9C59A",
"0X c #CBC3BE",
"qX c #DCC2B2",
"wX c #DBC5B9",
"eX c #CCC6C2",
"rX c #CEC9C5",
"tX c #D3CBC5",
"yX c #DDCEC5",
"uX c #D1CDCA",
"iX c #D5D0CB",
"pX c #DBD2CB",
"aX c #D6D4D2",
"sX c #D9D6D4",
"dX c #DBD9D7",
"fX c #DDDCDA",
"gX c #E1DAD6",
"hX c #E0DFDE",
"jX c #E1E0DF",
"kX c #E5E4E4",
"lX c #E8E7E7",
"zX c #E8E8E7",
"xX c #E7E7E8",
"cX c #EAEAEA",
"vX c None",
/* pixels */
"vXvXvXvXvXvXvXvXvXvXvXvXvXvXvXvXvXvXvXvXvXvXvXvXvXvXvXvXvXvXvXvXvXvXvXvXvXvXvXvXvXvXvXvXvXvXvXvX",
"vXvXvXvXvXvXvXvXvXvXvXvXvXvXvXvXvXvXvXvXvXvXvXvXvXvXvXvXvXvXvXvXvXvXvXvXvXvXvXvXvXvXvXvXvXvXvXvX",
"vXvXvXvXvXvXvXvXvXvXvXvXvXvXvXvXvXvXvXvXvXvXvXvXvXvXvXvXvXvXvXvXvXvXvXvXvXvXvXvXvXvXvXvXvXvXvXvX",
"vXvXvXvXvXvXvXvXvXvXvXvXvXvXvXvXvXvXvXvXvXvXvXvXvXvXvXvXvXvXvXvXvXvXvXvXvXvXvXvXvXvXvXvXvXvXvXvX",
"vXvXvXvXvXvXvXvXvXvXvXvXvXvXvXvXvXvXvXvXvXvXvXvXvXvXvXvXvXvXvXvXvXvXvXvXvXvXvXvXvXvXvXvXvXvXvXvX",
"vXvXvXvXvXvXvXvXvXvXvXvXvXvXvXvXvXvXvXvXvXvXvXvXvXvXvXvXvXvXvXvXvXvXvXvXvXvXvXvXvXvXvXvXvXvXvXvX",
"vXvXvXvXvXvXvXvXvXvXvXvXvXvXvXvXvXvXvXvXvXvXvXvXvXvXvXvXvXvXvXvXvXvXvXvXvXvXvXvXvXvXvXvXvXvXvXvX",
"vXvXvXvXvXvXvXvXvXvXvXvXvXvXvXvXvXvXvXvXvXvXvXvXvXvXvXvXvXvXvXvXvXvXvXvXvXvXvXvXvXvXvXvXvXvXvXvX",
"vXvXvXvXvXvXvXvXvXvXvXvXvXvXvXvXvXvXvXvXvXvXvXvXvXvXvXvXvXvXvXvXvXvXvXvXvXvXvXvXvXvXvXvXvXvXvXvX",
"vXvXvXvXvXvXvXvXvXvXvXvXvXvXvXvXvXvXvXvXvXvXvXvXvXvXvXvXvX}.eX0XvXvXvXvXvXvXvXvXvXvXvXvXvXvXvXvX",
"vXvXvXvXvXvXvXvXvXvXvXvXvXvXvXvXvXvXvXvXvXvXvXvXvXvX|.uXfXzXcXhXvXvXvXvXvXvXvXvXvXvXvXvXvXvXvXvX",
"vXvXvXvXvXvXvXvX< a < vXvXvXvXvXvXvXvXvXvXvXvXvXtXfXlXcXcXcXzXlXrXvXvXvXvXvXvXvXvXvXvXvXvXvXvXvX",
"vXvXvXvXvXZ =.m.T.R.M.%.> vXvXvXvXvXvXvXvX{.uXkXcXcXcXzXkXfXfXfXjXjXeXvXvXvXvXvXvXvXvXvXvXvXvXvX",
"vXvXvXA M.W.&X&X#X#X).).m.Z vXvXvXvX}.rXaXkXcXcXlXhXfXsXfXhXlXzXcXcXkX0XvXvXvXvXvXvXvXvXvXvXvXvX",
"vXvXr D.&X).(.).).(.(.).(.I.&.`.rXdXlXcXcXkXfXsXsXfXkXlXcXcXcXcXcXcXcXfXvXvXvXvXvXvXvXvXvXvXvXvX",
"vXvXV (.).(.(.(.(.(.^.W.@XqXpXkXlXlXfXaXaXsXfXlXcXcXcXcXcXzXcXcXcXcXcXxX6XvXvXvXvXvXvXvXvXvXvXvX",
"vX# J Y.(.(.(.(.E.OX3XyXjXkXjXdXaXaXsXhXkXcXcXcXcXcXcXcXcXcXcXcXcXcXcXcXaXvXvXvXvXvXvXvXvXvXvXvX",
"vXO k A.(.~.W.oXwXfXjXfXsXaXsXdXkXlXcXcXcXcXcXcXcXcXcXcXcXcXcXcXzXcXcXcXkXvXvXvX@ 4 9 j * vXvXvX",
"vXvX8 >.^.+XpXkXxXsXaXsXhXkXkXcXxXcXcXcXcXcXcXcXcXcXcXcXcXcXcXcXcXzXpX1Xr.Z t i y p p r > 1 vXvX",
"vXvX4 J L.~.qXzXkXaXjXcXcXcXcXzXxXxXcXcXcXcXcXcXcXcXcXcXcXcXcXkX1X&.B M Q :.Z < ; - - - , > vXvX",
"vXvX# k c.Y.E.pXxXaXfXcXcXzXzXzXcXcXcXcXcXcXcXcXcXcXcXcXcXcXpX;.c Q s.^.*XoX#.= = = = ; 1 vXvXvX",
"vXvXvX8 ,.Y.P.;XkXjXaXxXzXcXcXcXcXcXcXcXcXcXcXcXcXcXcXcXcX5XA G s.&X9X9X9X7Xq.- = = ; , : vXvXvX",
"vXvXvX4 ! P.L.F.yXcXaXjXcXkXcXcXcXcXcXcXcXcXcXcXcXcXcXzX[.N P A.8X9X9X9X9X7XV., = = : 1 vXvXvXvX",
"vXvXvX% v H.L.K.XXkXfXsXcXcXcXcXcXcXcXcXcXcXcXcXcXcXfXw.h W Q.8X8X8X8X8X8X9X$Xd = = 1 1 vXvXvXvX",
"vXvXvXO 0 a.P.K.S.sXcXaXcXcXcXcXcXcXcXcXcXcXcXjXiX[.O.q ) /.<X<X8X8X<X8X8X8X$X+.= ; 1 vXvXvXvXvX",
"vXvXvXvX5 ) K.K.v.3XcXdXhXcXcXcXcXcXcXkXsX2X_.@.p j E d.#X-X=X-X=X=X=X8X8X<X<Xq.= - + vXvXvXvXvX",
"vXvXvXvX4 J b.b.z.C.jXkXsXcXcXcXhX4X_.$.f h b ~ a.F.(.*X-X-X-X-X-X-X-X-X-X<X<Xt., , vXvXvXvXvXvX",
"vXvXvXvX% c k.x.z.g.yXcXsXkXcXeX+.5 h S >.Z.Q.(.#X&X&X&X#X&X&X&X-X&X-X-X-X-X<X X1 1 vXvXvXvXvXvX",
"vXvXvXvXO 9 3.x.x.i.3XcXdXkXtXg h >.J.Q.~.(.(.(.)./.(.).#X).&X&X&X%X*X-X*X-X-X.X+.vXvXvXvXvXvXvX",
"vXvXvXvXvX5 ) j.j.8.C.xXkXeX+.6 >.Y.Y.!.~.~.Y.~.~.(./.(.).).(.#X).&X&X&X&X&X*X%X@.vXvXvXvXvXvXvX",
"vXvXvXvXvX2 J 8.8.p.f.gXkX-.4 ^ K.P.L.U.L.Y.Q.Q.Q.~.~.~.~./.(.(./.).).).&X&X&XW.C vXvXvXvXvXvXvX",
"vXvXvXvXvX% v 7.7.7.1.wX}.e m G.K.K.J.L.L.L.L.L.Q.Q.Y.Q.~.~.~./.^.(./.(.(.(.#XN.X.vXvXvXvXvXvXvX",
"vXvXvXvXvXO k <.6.6.4.B...u ,.H.H.H.J.J.J.K.K.K.L.L.Q.U.Q.Q.Q.~.Q.~.~.~.(.(.(.y.`.vXvXvXvXvXvXvX",
"vXvXvXvXvXO 6 { 5.4. .x 4 ~ h.z.v.v.b.H.H.J.J.J.K.L.L.P.L.L.U.Y.Q.Q.~.Y.!.^.!.0.0XvXvXvXvXvXvXvX",
"vXvXvXvXvXvX2 W  . .{ y z 3.h.k.x.x.x.b.v.H.H.J.G.G.J.K.K.P.P.P.L.U.L.Q.!.Y.F.;.{.vXvXvXvXvXvXvX",
"vXvXvXvXvXvX2 K } } n 4 / j.8.j.l.l.l.l.x.x.z.z.b.H.H.H.H.J.K.P.P.K.K.J.H.l.,.< vXvXvXvXvXvXvXvX",
"vXvXvXvXvXvX% c } Q 4 9 <.j.8.8.j.j.l.l.l.l.l.l.x.z.z.b.b.H.H.b.z.j.p.6. .7.! vXvXvXvXvXvXvXvXvX",
"vXvXvXvXvXvX$ 0 ` v 2 F } 8.8.8.i.i.j.j.j.l.l.l.j.x.x.l.l.p.7. . .} }  . . .l vXvXvXvXvXvXvXvXvX",
"vXvXvXvXvXvXO h I 5 8 Y [ 6.6.4.i.i.i.i.j.j.j.j.i.9.4. .} [ [ [ } [ } } [ S @ vXvXvXvXvXvXvXvXvX",
"vXvXvXvXvXvXvX5 k 4 w R ` 4.6.4.7.7.7.i.7.4. .} [ ] ' R ' ' ] ] ] _ U n y + vXvXvXvXvXvXvXvXvXvX",
"vXvXvXvXvXvXvX5 4 5 I R R  .5.4.4.4. .} [ ] ' R ' ' ' ' ' Y I v u 3 & vXvXvXvXvXvXvXvXvXvXvXvXvX",
"vXvXvXvXvXvXvX* 2 j R R R  .} ] [ ' ' ' ' ' R R R Y P v 9 3 @ X vXvXvXvXvXvXvXvXvXvXvXvXvXvXvXvX",
"vXvXvXvXvXvXvX@ 3 G R R R ' R R ' R ' ' R Y I D 9 4 $ . vXvXvXvXvXvXvXvXvXvXvXvXvXvXvXvXvXvXvXvX",
"vXvXvXvXvXvXvXo 4 I R R ' ' ' R ' Y I w 9 4 #   vXvXvXvXvXvXvXvXvXvXvXvXvXvXvXvXvXvXvXvXvXvXvXvX",
"vXvXvXvXvXvXvX+ 8 Y R ' R Y I F 0 4 * o vXvXvXvXvXvXvXvXvXvXvXvXvXvXvXvXvXvXvXvXvXvXvXvXvXvXvXvX",
"vXvXvXvXvXvXvXvX3 L I G k 6 % o vXvXvXvXvXvXvXvXvXvXvXvXvXvXvXvXvXvXvXvXvXvXvXvXvXvXvXvXvXvXvXvX",
"vXvXvXvXvXvXvXvXvX% % o vXvXvXvXvXvXvXvXvXvXvXvXvXvXvXvXvXvXvXvXvXvXvXvXvXvXvXvXvXvXvXvXvXvXvXvX",
"vXvXvXvXvXvXvXvXvXvXvXvXvXvXvXvXvXvXvXvXvXvXvXvXvXvXvXvXvXvXvXvXvXvXvXvXvXvXvXvXvXvXvXvXvXvXvXvX"
};
