/* XPM */
static char *Log[] = {
/* columns rows colors chars-per-pixel */
"34 34 168 2 ",
"   c #010101",
".  c #080806",
"X  c #0B0B0B",
"o  c #100E0F",
"O  c #13140F",
"+  c #141413",
"@  c #181713",
"#  c #1D1C1C",
"$  c #242323",
"%  c #2B2B2B",
"&  c #262E35",
"*  c #2A3139",
"=  c #373735",
"-  c #383836",
";  c #393738",
":  c #3C3C39",
">  c #43433F",
",  c #192E46",
"<  c #122F4F",
"1  c #1A3047",
"2  c #1B3148",
"3  c #112E50",
"4  c #143251",
"5  c #1F3751",
"6  c #213952",
"7  c #374047",
"8  c #2B425A",
"9  c #28435B",
"0  c #33485C",
"q  c #2E4660",
"w  c #274663",
"e  c #324A63",
"r  c #3E5364",
"t  c #3B5671",
"y  c #444442",
"u  c #4B4C4B",
"i  c #51514E",
"p  c #4C535B",
"a  c #525251",
"s  c #5D5D5D",
"d  c #5B5C56",
"f  c #62635D",
"g  c #44596E",
"h  c #425A72",
"j  c #4A627A",
"k  c #646464",
"l  c #666866",
"z  c #6B6A65",
"x  c #666769",
"c  c #6C6B6A",
"v  c #6F706B",
"b  c #72736E",
"n  c #6F7170",
"m  c #737373",
"M  c #7A7B7A",
"N  c #7A7B76",
"B  c #828278",
"V  c #566E86",
"C  c #567087",
"Z  c #5C778D",
"A  c #5F788E",
"S  c #5D7283",
"D  c #5C7B97",
"F  c #617585",
"G  c #64798C",
"H  c #6C7E8A",
"J  c #717E87",
"K  c #717E88",
"L  c #657B90",
"P  c #75838C",
"I  c #7B848B",
"U  c #65829D",
"Y  c #6C8299",
"T  c #74899A",
"R  c #6C89A7",
"E  c #6E8BA9",
"W  c #6584A1",
"Q  c #748CA5",
"!  c #788EA2",
"~  c #728CAC",
"^  c #7693B3",
"/  c gray52",
"(  c #868887",
")  c #8C8D8B",
"_  c #8F9088",
"`  c #929292",
"'  c #999996",
"]  c #9D9D9A",
"[  c #879AAB",
"{  c #859EB2",
"}  c #92A1AD",
"|  c #98A1A8",
" . c #90A3B4",
".. c #AAABAA",
"X. c #A5A5A5",
"o. c #B1B1AF",
"O. c #A5ACB6",
"+. c #A0AEB9",
"@. c #A3B3BD",
"#. c #B5B4B1",
"$. c #B9B8B5",
"%. c #B5BDBE",
"&. c #BDBCBA",
"*. c #C0BFBB",
"=. c #C2C2BD",
"-. c #9AACC2",
";. c #96B2CE",
":. c #A4B3C3",
">. c #AAB7C0",
",. c #AEBCC7",
"<. c #AFBDC8",
"1. c #B7BEC8",
"2. c #B5BCC4",
"3. c #A0B8D0",
"4. c #AEBED5",
"5. c #B7C3CE",
"6. c #B9C4CC",
"7. c #B9C1C3",
"8. c #ABC3DB",
"9. c #BAC7D7",
"0. c #B5C8D6",
"q. c #BECAD3",
"w. c #ADC7E2",
"e. c #B3CBE4",
"r. c #B8D0EA",
"t. c #C2C2C1",
"y. c #CBCBCB",
"u. c #D5D6CF",
"i. c #C8CED3",
"p. c #C7D1D3",
"a. c #CDD5D5",
"s. c #CFD8D7",
"d. c #C8D3D9",
"f. c #D2D6D5",
"g. c #D4D8D5",
"h. c #DBDDD5",
"j. c #D3D9D9",
"k. c #DDDDDB",
"l. c #DFE0DB",
"z. c #E3E2DA",
"x. c #EBEADE",
"c. c #D1DBE2",
"v. c #DBE2E7",
"b. c #D4E1F2",
"n. c #E4E5E4",
"m. c #EDEBE4",
"M. c #E4E7ED",
"N. c #E3EBEE",
"B. c #EAEBEB",
"V. c #F1EDE5",
"C. c #F2EEEA",
"Z. c #EEF0EF",
"A. c #F6F5EE",
"S. c #F8F5EE",
"D. c #E4EEF0",
"F. c #E9EDF5",
"G. c #E2EEFE",
"H. c #E9EDF8",
"J. c #E6F2FF",
"K. c #ECF4FB",
"L. c #EAFFFF",
"P. c #F6F6F3",
"I. c #F8F7F5",
"U. c #F7F8F5",
"Y. c #FAFAF4",
"T. c #F5F7F8",
"R. c #F6FEFF",
"E. c #FCFEFE",
/* pixels */
"E.E.E.E.E.E.E.E.E.E.E.E.E.E.E.E.E.E.E.E.E.E.E.E.E.E.E.E.E.E.E.E.E.E.",
"E.E.R.E.E.E.E.E.E.R.E.E.E.E.R.E.E.E.E.E.R.E.E.E.E.E.R.R.E.E.E.E.E.E.",
"E.i. .Z t e e e e e e e q 9 6 6 5 6 5 5 6 8 8 e e e e e t G >.v.E.E.",
"E.} Y ~ ;.e.r.r.e.e.r.r.8.{ C h h h h h j Q 3.e.e.e.e.w.;.U ! +.E.E.",
"R.F Q 4.J.E.O.1.R.R.O.2.R.| p * & & & * 7 I c.E.R.E.E.E.b.-.W C R.E.",
"L.g :.G.K.t.% x T.y.s c $.c # o = = ; $ . i t.E.E.E.E.E.E.b.~ w E.E.",
"L.e 9.R.p.% X M f.% ..' # a # a n.B.n.` X a t.E.E.E.E.E.E.R.^ 4 R.E.",
"L.0 q.E.A.o.% m y.# #.] o a $ # s B.` % X a t.E.E.E.E.E.T.K.~ 4 E.E.",
"L.0 q.E.E.Y.> b y.@ #.] . a $ $ / B...u X i *.E.E.Y.E.Y.S.K.~ < R.E.",
"L.0 6.E.Y.P.: c u.y ' _ = s # u g.I.n./ X i *.E.Y.Y.I.I.I.K.~ < E.E.",
"L.0 5.E.T.C.> x I.k.a c y.m # . ; k.N o X a *.T.Y.I.I.T.P.K.~ 3 R.E.",
"L.e 5.E.T.P.*.y.T.I.*.y.n.m #   @ k.s   X a t.T.I.P.T.Y.P.K.~ 3 E.E.",
"L.e 5.R.T.T.E.E.I.I.E.E.l.m # % / F...u X i 2.T.I.I.T.I.A.K.~ < R.E.",
"L.0 5.E.T.T.T.P.I.I.T.T.n.m + i k.T.B./ o a *.I.T.T.I.S.m.F.~ 3 E.E.",
"L.0 5.R.T.P.P.T.T.T.I.T.n.n # X : k.M o X a 2.I.I.P.I.C.m.H.~ 3 E.E.",
"L.0 5.E.T.P.P.P.I.T.T.Y.k.n #   # k.k   X a *.Y.P.I.I.C.m.H.~ 3 E.E.",
"L.0 6.R.U.P.Y.P.U.P.U.Y.l.n $   # k.k   . a &.E.P.A.S.A.m.F.Q 3 R.E.",
"L.0 6.R.U.A.A.P.A.A.P.Y.l.v # X y n.M + X a &.Y.P.A.A.S.V.M.E 3 E.E.",
"L.0 6.R.P.A.A.A.A.A.A.Y.l.v @ a k.E.B.) X i *.Y.A.A.S.A.V.M.E < E.E.",
"L.0 6.R.P.A.A.A.S.A.A.Y.l.b # $ M M.X.y X i &.Y.A.A.P.S.V.M.Q < E.E.",
"L.0 6.R.A.A.A.A.A.A.Y.Y.l.b #   # k.k   X i &.Y.A.A.A.A.V.B.Q 3 R.E.",
"L.0 5.Y.P.A.A.A.Y.A.z.m.l.b #   $ k.x   X i &.Y.A.A.A.A.V.M.E 3 E.E.",
"L.0 6.R.A.S.A.A.A.A.f N l.b $   $ k.k   X i &.Y.A.A.S.A.m.D.E 3 R.E.",
"L.0 6.R.A.A.A.Y.h.z @ f l.b #   $ k.x   X i &.Y.A.A.P.A.m.D.E 3 E.E.",
"L.0 6.R.A.A.A.Y.u.i O z l.b #   # k.k   . i &.Y.Y.A.A.A.m.D.E < R.E.",
"L.0 6.R.A.A.A.S.A.m.> f l.b # . ; z.m O X i &.Y.Y.A.A.m.m.N.E < E.E.",
"L.0 1.E.A.A.Y.A.Y.C.> f l.b @ u j.E.n.( X i &.Y.A.A.C.m.A.D.E < R.E.",
"L.0 1.U.A.C.A.A.A.m.> d l.v + % m n b u . i $.Y.A.A.C.m.m.v.R < E.E.",
"L.0 >.D.m.x.x.x.m.z.z B h._ : @ + + + o $ b =.x.x.x.m.z.l.c.W 4 R.E.",
"L.r } d.j.l.h.h.h.h.u.u.h.g.) f x l x k b =.l.l.g.l.g.u.a.,.D 9 E.E.",
"R.S G [ 7.a.a.s.a.a.f.s.g.f.6.%.%.%.%.%.%.p.s.p.g.s.a.p.5.T Z Z E.E.",
"R.@.! G G H J P J J J J J P P P P P P P P P P M P P H P Z Z { 0.E.E.",
"E.v.@.S 0 , , , , , , , , , , , , , , , , , , , , , , 1 8 S 5.R.E.E.",
"E.E.R.L.L.L.L.L.L.L.L.L.L.L.L.L.L.L.L.L.L.L.L.L.L.L.L.L.L.L.E.E.E.E."
};
