/* XPM */
static char *run[] = {
/* columns rows colors chars-per-pixel */
"48 48 110 2 ",
"   c #07671F",
".  c #066C1B",
"X  c #0B7C17",
"o  c #07711A",
"O  c #097419",
"+  c #0A7918",
"@  c #147E1B",
"#  c #0A6922",
"$  c #0F6829",
"%  c #106E27",
"&  c #146E2E",
"*  c #127625",
"=  c #127A23",
"-  c #14732A",
";  c #1B752B",
":  c #1D6934",
">  c #1D7337",
",  c #236D3B",
"<  c #28753A",
"1  c #227A39",
"2  c #2B7746",
"3  c #297B42",
"4  c #307E48",
"5  c #3E7F63",
"6  c #407F66",
"7  c #139E0F",
"8  c #0D8415",
"9  c #0E8A13",
"0  c #108F12",
"q  c #13831C",
"w  c #158A1C",
"e  c #119311",
"r  c #139B11",
"t  c #159119",
"y  c #1B961F",
"u  c #17981A",
"i  c #1B9B1E",
"p  c #16A211",
"a  c #19A614",
"s  c #1AA916",
"d  c #1EA31F",
"f  c #1DAC19",
"g  c #1FB01C",
"h  c #21B21D",
"j  c #1F8426",
"k  c #1C8729",
"l  c #1D8B28",
"z  c #1D9F21",
"x  c #24832D",
"c  c #28872F",
"v  c #25932C",
"b  c #2A9F2E",
"n  c #248434",
"m  c #29843C",
"M  c #2D883F",
"N  c #308D3F",
"B  c #30953A",
"V  c #349B3A",
"C  c #1DA021",
"Z  c #1FA820",
"A  c #21AB21",
"S  c #2CA42D",
"D  c #23B420",
"F  c #2AB528",
"G  c #30A431",
"H  c #35AA35",
"J  c #39AE36",
"K  c #39A53C",
"L  c #39B433",
"P  c #3EB63E",
"I  c #338446",
"U  c #318944",
"Y  c #34834D",
"T  c #358A49",
"R  c #398D4D",
"E  c #379346",
"W  c #389645",
"Q  c #3B9C44",
"!  c #3B944A",
"~  c #3B9848",
"^  c #378252",
"/  c #3B8555",
"(  c #3B8953",
")  c #3D835C",
"_  c #3AA141",
"`  c #3E8061",
"'  c #408F55",
"]  c #438B5E",
"[  c #48915F",
"{  c #43A74B",
"}  c #4EA25D",
"|  c #50A65F",
" . c #52AA5F",
".. c #51BA55",
"X. c #58B95F",
"o. c #438366",
"O. c #478965",
"+. c #498D65",
"@. c #4D9265",
"#. c #4E9A63",
"$. c #509C63",
"%. c #52A263",
"&. c #54AB61",
"*. c #57B261",
"=. c #5ABC60",
"-. c #4CC24B",
";. c #55C655",
":. c #58C956",
">. c #5EC85F",
",. c None",
/* pixels */
",.,.,.,.,.,.,.,.,.,.,.,.,.,.,.,.,.,.,.,.,.,.,.,.,.,.,.,.,.,.,.,.,.,.,.,.,.,.,.,.,.,.,.,.,.,.,.,.",
",.,.,.,.,.,.,.,.,.,.,.,.,.,.,.,.,.,.,.,.,.,.,.,.,.,.,.,.,.,.,.,.,.,.,.,.,.,.,.,.,.,.,.,.,.,.,.,.",
",.,.,.,.,.,.,.,.,.,.,.,.,.,.,.,.,.,.,.,.,.,.,.,.,.,.,.,.,.,.,.,.,.,.,.,.,.,.,.,.,.,.,.,.,.,.,.,.",
",.,.,.,.,.,.,.,.,.,.,.,.,.,.,.,.,.,.,.,.,.,.,.,.,.,.,.,.,.,.,.,.,.,.,.,.,.,.,.,.,.,.,.,.,.,.,.,.",
",.,.,.,.,.,.,.,.,.,.,.,.,.,.,.,.,.,.,.,.,.,.,.,.,.,.,.,.,.,.,.,.,.,.,.,.,.,.,.,.,.,.,.,.,.,.,.,.",
",.,.,.,.,.,.,.,.,.,.,.,.,.,.,.,.,.,.,.,.,.,.,.,.,.,.,.,.,.,.,.,.,.,.,.,.,.,.,.,.,.,.,.,.,.,.,.,.",
",.,.,.,.,.,.,.,.,.,.,.,.,.,.,.,.,.,.,.,.,.,.,.,.,.,.,.,.,.,.,.,.,.,.,.,.,.,.,.,.,.,.,.,.,.,.,.,.",
",.,.,.,.,.,.,.,.,.,.,.S G j ,.,.,.,.,.,.,.,.,.,.,.,.,.,.,.,.,.,.,.,.,.,.,.,.,.,.,.,.,.,.,.,.,.,.",
",.,.,.,.,.,.,.,.,.,.S L J H v ,.,.,.,.,.,.,.,.,.,.,.,.,.,.,.,.,.,.,.,.,.,.,.,.,.,.,.,.,.,.,.,.,.",
",.,.,.,.,.,.,.,.,.,.G J K K Q B ; ,.,.,.,.,.,.,.,.,.,.,.,.,.,.,.,.,.,.,.,.,.,.,.,.,.,.,.,.,.,.,.",
",.,.,.,.,.,.,.,.,.,.G K Q Q W W E m ,.,.,.,.,.,.,.,.,.,.,.,.,.,.,.,.,.,.,.,.,.,.,.,.,.,.,.,.,.,.",
",.,.,.,.,.,.,.,.,.,.V Q ~ E ! R R ( T : ,.,.,.,.,.,.,.,.,.,.,.,.,.,.,.,.,.,.,.,.,.,.,.,.,.,.,.,.",
",.,.,.,.,.,.,.,.,.,.B ~ ! R R / ( / ) ( 3 ,.,.,.,.,.,.,.,.,.,.,.,.,.,.,.,.,.,.,.,.,.,.,.,.,.,.,.",
",.,.,.,.,.,.,.,.,.,.B ! R R / ( / ) ) ) ` ^ : ,.,.,.,.,.,.,.,.,.,.,.,.,.,.,.,.,.,.,.,.,.,.,.,.,.",
",.,.,.,.,.,.,.,.,.,.N R ( ( ( / ) ` 5 5 5 o.) 2 ,.,.,.,.,.,.,.,.,.,.,.,.,.,.,.,.,.,.,.,.,.,.,.,.",
",.,.,.,.,.,.,.,.,.,.U ( ( / ) 5 ` 5 5 5 6 6 o.o./ , ,.,.,.,.,.,.,.,.,.,.,.,.,.,.,.,.,.,.,.,.,.,.",
",.,.,.,.,.,.,.,.,.,.T / / ) ) 5 5 5 6 6 6 6 o.6 O.O.4 ,.,.,.,.,.,.,.,.,.,.,.,.,.,.,.,.,.,.,.,.,.",
",.,.,.,.,.,.,.,.,.,.Y ) ) 5 5 6 5 5 6 6 6 o.o.o.O.O.+.( , ,.,.,.,.,.,.,.,.,.,.,.,.,.,.,.,.,.,.,.",
",.,.,.,.,.,.,.,.,.,.Y ) 5 5 6 6 6 6 6 o.6 o.o.O.O.+.+.@.[ I ,.,.,.,.,.,.,.,.,.,.,.,.,.,.,.,.,.,.",
",.,.,.,.,.,.,.,.,.,.^ 6 5 6 6 6 6 6 o.o.o.O.O.O.+.+.@.@.@.$.! < ,.,.,.,.,.,.,.,.,.,.,.,.,.,.,.,.",
",.,.,.,.,.,.,.,.,.,./ 6 6 6 6 6 o.o.o.O.O.O.O.@.@.@.@.#.$.$.%.} E ,.,.,.,.,.,.,.,.,.,.,.,.,.,.,.",
",.,.,.,.,.,.,.,.,.,./ o.6 6 o.o.o.o.O.O.O.O.@.@.@.@.#.$.$.%.%.&.&.{ x ,.,.,.,.,.,.,.,.,.,.,.,.,.",
",.,.,.,.,.,.,.,.,.,.4 o.o.o.6 o.O.O.O.+.+.@.@.@.@.$.$.$.%.%.&.&.&.=...V ,.,.,.,.,.,.,.,.,.,.,.,.",
",.,.,.,.,.,.,.,.,.,.) o.o.o.O.O.O.O.+.+.@.@.@.$.$.$.} }  . .&.*.=.=.>.;.c ,.,.,.,.,.,.,.,.,.,.,.",
",.,.,.,.,.,.,.,.,.,./ o.O.O.O.O.+.+.@.@.[ ' T M m x k k l v b H P -.:.;.c ,.,.,.,.,.,.,.,.,.,.,.",
",.,.,.,.,.,.,.,.,.,.) +.O.O.+.@.@.] Y 1 - # O O + X 8 8 9 e 7 7 s D F b ,.,.,.,.,.,.,.,.,.,.,.,.",
",.,.,.,.,.,.,.,.,.,./ O.O.+.+.( 3 % . . o O + + X 8 9 0 7 p a g D g @ ,.,.,.,.,.,.,.,.,.,.,.,.,.",
",.,.,.,.,.,.,.,.,.,.( @.+.) > #   . . o O + + 8 8 9 e 7 p f h D y ,.,.,.,.,.,.,.,.,.,.,.,.,.,.,.",
",.,.,.,.,.,.,.,.,.,.( ] 2 $   . . o O + + X 8 9 0 r p a g D Z q ,.,.,.,.,.,.,.,.,.,.,.,.,.,.,.,.",
",.,.,.,.,.,.,.,.,.,.m &     . . o O + + 8 8 0 e 7 p f h g C ,.,.,.,.,.,.,.,.,.,.,.,.,.,.,.,.,.,.",
",.,.,.,.,.,.,.,.,.,.*   . . o O + + X 8 9 0 r 7 a g D A q ,.,.,.,.,.,.,.,.,.,.,.,.,.,.,.,.,.,.,.",
",.,.,.,.,.,.,.,.,.,.* . o o + + X 8 8 9 e r a f h h i ,.,.,.,.,.,.,.,.,.,.,.,.,.,.,.,.,.,.,.,.,.",
",.,.,.,.,.,.,.,.,.,.* o O + + 8 8 9 0 r p a g D A @ ,.,.,.,.,.,.,.,.,.,.,.,.,.,.,.,.,.,.,.,.,.,.",
",.,.,.,.,.,.,.,.,.,.q O + X 8 8 9 e 7 a f h D i ,.,.,.,.,.,.,.,.,.,.,.,.,.,.,.,.,.,.,.,.,.,.,.,.",
",.,.,.,.,.,.,.,.,.,.q + 8 8 8 0 r 7 s h h A q ,.,.,.,.,.,.,.,.,.,.,.,.,.,.,.,.,.,.,.,.,.,.,.,.,.",
",.,.,.,.,.,.,.,.,.,.q 8 8 9 e p a f h D y ,.,.,.,.,.,.,.,.,.,.,.,.,.,.,.,.,.,.,.,.,.,.,.,.,.,.,.",
",.,.,.,.,.,.,.,.,.,.w 9 0 r r s h h A @ ,.,.,.,.,.,.,.,.,.,.,.,.,.,.,.,.,.,.,.,.,.,.,.,.,.,.,.,.",
",.,.,.,.,.,.,.,.,.,.t r p a f D D z ,.,.,.,.,.,.,.,.,.,.,.,.,.,.,.,.,.,.,.,.,.,.,.,.,.,.,.,.,.,.",
",.,.,.,.,.,.,.,.,.,.u 7 s g D Z q ,.,.,.,.,.,.,.,.,.,.,.,.,.,.,.,.,.,.,.,.,.,.,.,.,.,.,.,.,.,.,.",
",.,.,.,.,.,.,.,.,.,.u a g D z ,.,.,.,.,.,.,.,.,.,.,.,.,.,.,.,.,.,.,.,.,.,.,.,.,.,.,.,.,.,.,.,.,.",
",.,.,.,.,.,.,.,.,.,.,.i d w ,.,.,.,.,.,.,.,.,.,.,.,.,.,.,.,.,.,.,.,.,.,.,.,.,.,.,.,.,.,.,.,.,.,.",
",.,.,.,.,.,.,.,.,.,.,.,.,.,.,.,.,.,.,.,.,.,.,.,.,.,.,.,.,.,.,.,.,.,.,.,.,.,.,.,.,.,.,.,.,.,.,.,.",
",.,.,.,.,.,.,.,.,.,.,.,.,.,.,.,.,.,.,.,.,.,.,.,.,.,.,.,.,.,.,.,.,.,.,.,.,.,.,.,.,.,.,.,.,.,.,.,.",
",.,.,.,.,.,.,.,.,.,.,.,.,.,.,.,.,.,.,.,.,.,.,.,.,.,.,.,.,.,.,.,.,.,.,.,.,.,.,.,.,.,.,.,.,.,.,.,.",
",.,.,.,.,.,.,.,.,.,.,.,.,.,.,.,.,.,.,.,.,.,.,.,.,.,.,.,.,.,.,.,.,.,.,.,.,.,.,.,.,.,.,.,.,.,.,.,.",
",.,.,.,.,.,.,.,.,.,.,.,.,.,.,.,.,.,.,.,.,.,.,.,.,.,.,.,.,.,.,.,.,.,.,.,.,.,.,.,.,.,.,.,.,.,.,.,.",
",.,.,.,.,.,.,.,.,.,.,.,.,.,.,.,.,.,.,.,.,.,.,.,.,.,.,.,.,.,.,.,.,.,.,.,.,.,.,.,.,.,.,.,.,.,.,.,.",
",.,.,.,.,.,.,.,.,.,.,.,.,.,.,.,.,.,.,.,.,.,.,.,.,.,.,.,.,.,.,.,.,.,.,.,.,.,.,.,.,.,.,.,.,.,.,.,."
};
