/* XPM */
static char *Open[] = {
/* columns rows colors chars-per-pixel */
"48 48 229 2 ",
"   c #93550D",
".  c #96590E",
"X  c #9C5B0D",
"o  c #935412",
"O  c #9A5D1B",
"+  c #9F6110",
"@  c #A4630E",
"#  c #AB6A0E",
"$  c #AF700F",
"%  c #B2730F",
"&  c #BA7B0F",
"*  c #A66B1D",
"=  c #A86C19",
"-  c #AE7015",
";  c #AD7118",
":  c #B47511",
">  c #BA7C11",
",  c #B77C1D",
"<  c #975E23",
"1  c #915D29",
"2  c #8E5F31",
"3  c #966027",
"4  c #996124",
"5  c #94612E",
"6  c #9A642C",
"7  c #8F6031",
"8  c #916233",
"9  c #986730",
"0  c #986937",
"q  c #976A3A",
"w  c #9B6B38",
"e  c #A06727",
"r  c #A86E22",
"t  c #B27923",
"y  c #B37C2C",
"u  c #A87A36",
"i  c #A57738",
"p  c #B27F36",
"a  c #A17743",
"s  c #BF8214",
"d  c #B88128",
"f  c #B48131",
"g  c #BB8733",
"h  c #BC8835",
"j  c #B78C3F",
"k  c #BC8A3E",
"l  c #C98D0F",
"z  c #C28513",
"x  c #C68B14",
"c  c #C88B12",
"v  c #C18518",
"b  c #C68C1C",
"n  c #CD9314",
"m  c #CB931D",
"M  c #D19613",
"N  c #D49A14",
"B  c #D99F16",
"V  c #D0961F",
"C  c #D49C1A",
"Z  c #DAA216",
"A  c #DAA31B",
"S  c #DDA81F",
"D  c #E2A917",
"F  c #E4AC19",
"G  c #EBB51B",
"H  c #EFB91D",
"J  c #F2BC1E",
"K  c #C78F25",
"L  c #C38C29",
"P  c #CE9927",
"I  c #C6912C",
"U  c #D19A24",
"Y  c #CB9737",
"T  c #CD9B33",
"R  c #C3933B",
"E  c #C7993B",
"W  c #D6A121",
"Q  c #DEAA23",
"!  c #D9A52C",
"~  c #DEA928",
"^  c #DEAF33",
"/  c #E0AB21",
"(  c #E6B323",
")  c #ECB722",
"_  c #E4B32B",
"`  c #E8B72A",
"'  c #E6B82F",
"]  c #EBB92B",
"[  c #F4BF21",
"{  c #E3B636",
"}  c #EBBC34",
"|  c #E0B23C",
" . c #E8BA3A",
".. c #F5C124",
"X. c #F9C427",
"o. c #F6C42C",
"O. c #F9C62C",
"+. c #EEC43F",
"@. c #F5C532",
"#. c #F6C837",
"$. c #F9C935",
"%. c #F2C63C",
"&. c #F7CA3C",
"*. c #F9CB3B",
"=. c #AE854E",
"-. c #BB8D46",
";. c #BF934E",
":. c #AB8552",
">. c #AD8854",
",. c #BB9564",
"<. c #C08F41",
"1. c #C89C46",
"2. c #C09149",
"3. c #CB9F48",
"4. c #C09451",
"5. c #C19B55",
"6. c #C49B5D",
"7. c #CEA24F",
"8. c #D6AA48",
"9. c #DFBD5F",
"0. c #E8BF43",
"q. c #E5BC50",
"w. c #C59E63",
"e. c #C0A167",
"r. c #CCAE64",
"t. c #D5B96F",
"y. c #C7A77D",
"u. c #C8A77B",
"i. c #CBAB7D",
"p. c #D8BB70",
"a. c #D0BA7F",
"s. c #EDC340",
"d. c #ECC54A",
"f. c #F6CC42",
"g. c #F9CE44",
"h. c #F2C949",
"j. c #FAD047",
"k. c #F9D14C",
"l. c #EAC652",
"z. c #EFCB53",
"x. c #EBCB5A",
"c. c #F6D254",
"v. c #F9D454",
"b. c #F4D25C",
"n. c #F9D65B",
"m. c #FBD85B",
"M. c #E3C363",
"N. c #E6C867",
"B. c #EAC961",
"V. c #E3C56C",
"C. c #ECCF6E",
"Z. c #EDD06B",
"A. c #F4D463",
"S. c #F9D760",
"D. c #F9D964",
"F. c #F2D76C",
"G. c #F6DA6C",
"H. c #F9DC6B",
"J. c #EACF70",
"K. c #EFD572",
"L. c #F0D673",
"P. c #F5DC74",
"I. c #F9DE72",
"U. c #F5DE7A",
"Y. c #F9E076",
"T. c #F6E17E",
"R. c #F9E37C",
"E. c #B49D86",
"W. c #BFA991",
"Q. c #CFB699",
"!. c #D0B79A",
"~. c #C2B7AB",
"^. c #D2BEA5",
"/. c #C2BBB4",
"(. c #C5BFB9",
"). c #D9C183",
"_. c #E5CD82",
"`. c #E8D387",
"'. c #EFDB82",
"]. c #EEDD8C",
"[. c #F0DE86",
"{. c #E5D695",
"}. c #E6D69A",
"|. c #E9DB9A",
" X c #F6E282",
".X c #F9E682",
"XX c #F9E887",
"oX c #F7E68B",
"OX c #F8E788",
"+X c #F9E88B",
"@X c #F1E295",
"#X c #F7E996",
"$X c #F8E992",
"%X c #F7E998",
"&X c #D4C1AB",
"*X c #C6C0B8",
"=X c #CBC6BF",
"-X c #D8C7B3",
";X c #D1C5B8",
":X c #DACDBD",
">X c #DFD7B5",
",X c #E5D9A1",
"<X c #E2D7AE",
"1X c #E4D8AB",
"2X c #E2D9BB",
"3X c #CFC9C2",
"4X c #D2CCC5",
"5X c #D3CFCA",
"6X c #DCD1C4",
"7X c #DFDAC2",
"8X c #D5D2CD",
"9X c #DFD5CB",
"0X c #DFDBCD",
"qX c #D7D4D0",
"wX c #D9D7D3",
"eX c #DBD9D6",
"rX c #DEDCDA",
"tX c #E1DBC7",
"yX c #E0D7CC",
"uX c #E0DACD",
"iX c #E2DED3",
"pX c #E1DFDC",
"aX c #E2E0DE",
"sX c #E6E5E4",
"dX c #E8E7E7",
"fX c #E8E8E7",
"gX c #E7E7E8",
"hX c #EAEAEA",
"jX c None",
/* pixels */
"jXjXjXjXjXjXjXjXjXjXjXjXjXjXjXjXjXjXjXjXjXjXjXjXjXjXjXjXjXjXjXjXjXjXjXjXjXjXjXjXjXjXjXjXjXjXjXjX",
"jXjXjXjXjXjXjXjXjXjXjXjXjXjXjXjXjXjXjXjXjXjXjXjXjXjXjXjXjXjXjXjXjXjXjXjXjXjXjXjXjXjXjXjXjXjXjXjX",
"jXjXjXjXjXjXjXjXjXjXjXjXjXjXjXjXjXjXjXjXjXjXjXjXjXjXjXjXjXjXjXjXjXjXjXjXjXjXjXjXjXjXjXjXjXjXjXjX",
"jXjXjXjXjXjXjXjXjXjXjXjXjXjXjXjXjXjXjXjXjXjXjXjXjXjXjXjXjXjXjXjXjXjXjXjXjXjXjXjXjXjXjXjXjXjXjXjX",
"jXjXjXjXjXjXjXjXjXjXjXjXjXjXjXjXjXjXjXjXjXjXjXjXjXjXjXjXjXjXjXjXjXjXjXjXjXjXjXjXjXjXjXjXjXjXjXjX",
"jXjXjXjXjXjXjXjXjXjXjXjXjXjXjXjXjXjXjXjXjXjXjXjXjXjXjXjXjXjXjXjXjXjXjXjXjXjXjXjXjXjXjXjXjXjXjXjX",
"jXjXjXjXjXjXjXjXjXjXjXjXjXjXjXjXjXjXjXjXjXjXjXjXjXjXjXjXjXjXjXjXjXjXjXjXjXjXjXjXjXjXjXjXjXjXjXjX",
"jXjXjXjXjXjXjXjXjXjXjXjXjXjXjXjXjXjXjXjXjXjXjXjXjXjXjXjXjXjXjXjXjXjXjXjXjXjXjXjXjXjXjXjXjXjXjXjX",
"jXjXjXjXjXjXjXjXjXjXjXjXjXjXjXjXjXjXjXjXjXjXjXjXjXjXjXjXjXjXjXjXjXjXjXjXjXjXjXjXjXjXjXjXjXjXjXjX",
"jXjXjXjXjXjXjXjXjXjXjXjXjXjXjXjXjXjXjXjXjXjXjXjXjXjXjXjXjX=X8X3XjXjXjXjXjXjXjXjXjXjXjXjXjXjXjXjX",
"jXjXjXjXjXjXjXjXjXjXjXjXjXjXjXjXjXjXjXjXjXjXjXjXjXjX(.5XaXhXhXsXjXjXjXjXjXjXjXjXjXjXjXjXjXjXjXjX",
"jXjXjXjXjXjXjXjXr t jXjXjXjXjXjXjXjXjXjXjXjXjXjX4XpXfXhXhXhXhXfX5XjXjXjXjXjXjXjXjXjXjXjXjXjXjXjX",
"jXjXjXjXjXf 7.M.C.L.N.1.jXjXjXjXjXjXjXjXjX*XwXsXhXhXhXsXsXpXrXrXpXaX4XjXjXjXjXjXjXjXjXjXjXjXjXjX",
"jXjXjXg M.U..XR..X.X.XR.9.y jXjXjXjX/.8XaXhXhXhXsXpXrXrXrXaXsXsXhXhXsX4XjXjXjXjXjXjXjXjXjXjXjXjX",
"jXjXt Z..X.XR..X.X.XR..X.XJ.5.E.3XrXsXhXfXaXrXrXwXrXsXsXhXhXhXhXhXhXhXsXjXjXjXjXjXjXjXjXjXjXjXjX",
"jXjX| R.R..X.X.XR..X.X X|.>XiXsXsXsXrXwXqXwXrXsXfXhXhXhXhXhXhXhXhXhXhXsX*XjXjXjXjXjXjXjXjXjXjXjX",
"jX; %.R.R..X.XR.[.].1X0XsXsXpXrXwXwXeXrXsXfXhXhXhXhXhXhXhXhXhXhXhXhXhXhX8XjXjXjXjXjXjXjXjXjXjXjX",
"jX= @.H..X.X[.,X7XpXpXrXwXqX8XrXsXsXgXhXhXhXhXhXhXhXhXhXhXhXhXhXhXhXhXhXsXjXjXjX= , K P * jXjXjX",
"jXjX~ m.R.].0XsXsXwX8XwXrXsXsXhXhXsXhXhXhXhXhXhXhXhXhXhXhXhXhXhXhXhXuX^.i.k y T E E j u 9 e jXjX",
"jXjXb f.Y. X2XhXsXqXsXhXsXhXsXhXhXhXfXhXhXhXhXhXhXhXhXhXhXhXhXsX^.w.Y !  .z.-.u 9 8 2 2 5 O jXjX",
"jXjX; ] D.R.'.7XsXwXrXhXhXhXhXhXhXhXhXhXhXhXhXhXhXhXhXhXhXhXuXw.U  .S.R.$X{.:.2 2 8 7 8 1 jXjXjX",
"jXjXjXS c.Y.Y.|.sXpXqXgXsXhXsXhXhXhXhXhXhXhXhXhXhXhXhXhXhX-XR ( c.oX%X%X%X@Xe.8 8 2 8 5 O jXjXjX",
"jXjXjXb %.I.I.P.tXgX8XpXhXhXhXhXhXhXhXhXhXhXhXhXhXhXhXhX!.I ` G.#X#X#X#X$X@Xa.0 2 8 8 6 jXjXjXjX",
"jXjXjX% ( D.H.G.}.gXrXwXhXsXhXhXhXhXhXhXhXhXhXhXhXhXiXu.m } P.#X$X#X+X+X$X+X[.a 2 8 2 jXjXjXjXjX",
"jXjXjX+ Z c.H.D.K.iXsXqXsXhXhXhXhXhXhXhXhXhXhXsXyX!.<.C s.T.$X$X$X$XXX+X+XXX[.:.7 8 4 jXjXjXjXjX",
"jXjXjXjXn +.D.D.A.<XhXeXpXhXhXhXhXhXhXsXiX^.u.;.L V _ b.oX+XoX+XXXXXXXXXXXXX Xr.9 1 o jXjXjXjXjX",
"jXjXjXjX> _ S.S.n.`.sXsXrXhXhXhXsX&Xy.4.L b W { z.P..X+XOXOXOX+XXXXX.X.XR.R.R.t.q < jXjXjXjXjXjX",
"jXjXjXjX$ Q c.n.n.A.uXhXqXsXhX6X2.v V ^ l.F..X.X+X+X+X.XXX.X.X.XR.R.R.R.R.R.R.p.w < jXjXjXjXjXjX",
"jXjXjXjX@ N h.n.n.c.1XhXrXsX6Xg N l.U.oXOXOXOX+XXX.X.X.X.XR.R.R.R.R.Y.R.P.I.I.V.p jXjXjXjXjXjXjX",
"jXjXjXjXjXx } v.c.k._.sXaX3X-.n x.+XOX.X+X.X.X.X.X XR.R.R.R.R.Y.Y.Y.I.H.I.G.H.H.R jXjXjXjXjXjXjX",
"jXjXjXjXjX> _ k.k.j.B.iXsX,.l d..X.X.X.XR.R.R.R.R.R.Y.Y.Y.Y.I.H.H.H.H.H.D.H.D.A.f jXjXjXjXjXjXjX",
"jXjXjXjXjX$ Q j.j.j.h.2X^.v { U..XR.T.R.R.R.R.P.I.I.I.Y.H.H.H.H.H.D.D.D.D.D.S.q.=.jXjXjXjXjXjXjX",
"jXjXjXjXjX# C &.f.g.g.).k C A.R.R.R.P.Y.I.I.I.I.I.H.H.H.H.D.D.D.D.D.S.S.m.n.m.8.W.jXjXjXjXjXjXjX",
"jXjXjXjXjXX n %.g.*.*.I c 0.I.Y.I.I.I.I.H.I.H.H.H.D.H.D.D.D.D.S.S.n.n.n.n.v.v.7.;XjXjXjXjXjXjXjX",
"jXjXjXjXjXjXx ] *.*.] > Q G.G.I.G.H.H.H.H.H.D.D.D.S.S.S.S.m.n.n.v.n.n.v.v.v.h.4.~.jXjXjXjXjXjXjX",
"jXjXjXjXjXjX> ( $.$.U l d.H.H.G.H.H.D.H.D.D.D.S.D.m.m.m.n.c.n.v.v.v.v.j.g.#.` * jXjXjXjXjXjXjXjX",
"jXjXjXjXjXjX% D $.] s A c.H.S.S.D.D.S.S.S.n.n.m.n.v.v.v.v.v.v.k.f.&.@.[ [ [ A jXjXjXjXjXjXjXjXjX",
"jXjXjXjXjXjX@ Z X.C x ] v.S.S.S.S.m.n.n.n.n.v.c.v.v.v.v.j.f.#.o.[ [ [ [ [ [ v jXjXjXjXjXjXjXjXjX",
"jXjXjXjXjXjX@ N ) v A @.g.n.m.n.m.v.v.v.v.c.v.v.k.k.f.@.[ X.[ [ [ [ [ [ J n . jXjXjXjXjXjXjXjXjX",
"jXjXjXjXjXjXjXn B s ( O.#.v.v.v.v.v.v.v.k.j.&.#.[ [ [ [ [ [ [ [ [ G D M > X jXjXjXjXjXjXjXjXjXjX",
"jXjXjXjXjXjXjXc s M J X.o.k.v.k.k.k.g.#.@.[ ..[ J ..[ [ J G D M z $ @ jXjXjXjXjXjXjXjXjXjXjXjXjX",
"jXjXjXjXjXjXjX& > A X.X...f.f.#.o.X.[ [ [ [ [ [ J G D M z $ @ jXjXjXjXjXjXjXjXjXjXjXjXjXjXjXjXjX",
"jXjXjXjXjXjXjX# z G ........X...[ ..[ [ [ H D N c % @   jXjXjXjXjXjXjXjXjXjXjXjXjXjXjXjXjXjXjXjX",
"jXjXjXjXjXjXjX+ M H ......[ ..J J H F N c : @   jXjXjXjXjXjXjXjXjXjXjXjXjXjXjXjXjXjXjXjXjXjXjXjX",
"jXjXjXjXjXjXjXX N J [ [ J H F Z c & @ X jXjXjXjXjXjXjXjXjXjXjXjXjXjXjXjXjXjXjXjXjXjXjXjXjXjXjXjX",
"jXjXjXjXjXjXjXjX% D F Z c & #   jXjXjXjXjXjXjXjXjXjXjXjXjXjXjXjXjXjXjXjXjXjXjXjXjXjXjXjXjXjXjXjX",
"jXjXjXjXjXjXjXjXjX# # X jXjXjXjXjXjXjXjXjXjXjXjXjXjXjXjXjXjXjXjXjXjXjXjXjXjXjXjXjXjXjXjXjXjXjXjX",
"jXjXjXjXjXjXjXjXjXjXjXjXjXjXjXjXjXjXjXjXjXjXjXjXjXjXjXjXjXjXjXjXjXjXjXjXjXjXjXjXjXjXjXjXjXjXjXjX"
};
